<?xml version="1.0" encoding="UTF-8"?>
<svg version="1.1" id="Layer_1" xmlns="http://www.w3.org/2000/svg" xmlns:xlink="http://www.w3.org/1999/xlink" x="0px" y="0px" viewBox="0 0 711.1 278.6" style="enable-background:new 0 0 711.1 278.6;" xml:space="preserve">
<style type="text/css">
	.st0{fill:#C00035;}
	.st1{fill:#F8CC07;}
</style>
<g>
	<path class="st0" d="M705.7,176.2c-5-6.7-13-10.8-21.3-10.8c-4.1,0-8.1,1-12,2.8c-6.4,3.2-13.5,6.1-20.9,8.7V59.4h24.9   c9.4,0,17-7.6,17-17V17c0-9.4-7.6-17-17-17H564.2c-4.2,0-8,1.5-11,4.1c-3-2.6-6.9-4.1-11-4.1H514c-7,0-13.2,4.2-15.8,10.7L463.3,98   l-34.9-87.3C425.8,4.2,419.5,0,412.6,0h-28.1c-7,0-13.2,4.2-15.8,10.7l-18.1,45.2V17c0-9.4-7.6-17-17-17H305c-9.4,0-17,7.6-17,17   v39.7h-29.3V17c0-9.4-7.6-17-17-17h-28.6c-9.4,0-17,7.6-17,17v42.3c-65.4-1.9-158-21.4-162.8-22.4l-11.9-3.1   c-1.4-0.4-2.9-0.6-4.3-0.6c-6.5,0-12.6,3.8-15.5,9.9c-3.4,7.5-1,16.4,5.8,21.1l10.5,7.2c6.3,4.3,12.8,8.3,19.3,12.1   c-2.5,1.3-4.6,3.3-6.2,5.8c-4.2,6.6-3.4,15.1,1.9,20.8l6,6.4c12.1,12.9,29.2,24.1,50.9,33.4c-0.5,4.8,1.1,9.8,4.6,13.5l6,6.3   c21.3,22.4,50.8,38.6,87.6,48.2c22.1,5.8,46.5,9.2,72.7,10c-7.5,9.3-12,17-13,18.7l-3.8,6.6c-3.9,6.8-2.7,15.3,3,20.7   c3.3,3.1,7.5,4.8,11.8,4.8c3.1,0,6.2-0.8,9-2.6l6.4-4c10.8-6.7,22.5-11.9,66.3-11.9c33,0,81.6,2.9,157.8,9.4   c12.8,1.1,25.4,1.7,37.4,1.7h0c51.2,0,122-10.5,168.4-60.8C712.8,200.8,713.5,186.7,705.7,176.2"/>
	<path class="st1" d="M241.7,99.1H305v63.6c16.1-0.4,43.2-3.7,52-7.1l9.9-25.3h53.5h8.2l3.7,9.6l8.2,20.9l2.3-1.1   c6.1-2.8,11.8-5.2,17.1-7.4c2-0.8,4-1.6,5.9-2.4c10.5-4.2,19.4-7.2,26.7-9.3l4-10.2h61.7l2.3,6.1c13.2,1.7,25.7,5.2,33.3,11.8   L542.1,17H514l-50.7,126.8L412.6,17h-28.1l-50.9,127.2V17H305v56.7h-63.4V17h-28.6v144.2c9.1,0.9,18.6,1.5,28.6,1.9V99.1z    M527.3,50.8l21.3,55h-42.5L527.3,50.8z M397.8,50.8l21.3,55h-42.5L397.8,50.8z"/>
	<path class="st1" d="M606.1,179.6V197c-0.6,0.6,21-2.7,28.6-6.1V42.4h41.9V17H564.2v25.4h41.9V179.6z"/>
	<path class="st1" d="M692.1,186.4c-2.4-3.2-7.1-5.4-12.1-2.9c-54.1,26.7-134.1,31-159.2,15.7c-4.5-2.7-6.7-5.9-6.8-9.3   c-0.1-3.4,0.9-6,3-8c6.8-6.7,24.4-6.3,39.9-5.8c17.9,0.5,33.3,0.9,35.6-8.3c1-4.2,0.2-7.9-2.6-11.2c-10-11.9-43.6-14.2-71.8-12.4   c-32.6,2.1-95.5,34.4-119.9,47.5c9.4-11.1,24.1-31.3,25.6-50l0.3-3.4l-3,1.5c-148.2,75.7-304.7,15.7-306.3,15.1l-8-3.2l6,6.3   c54.8,57.5,157.5,54.9,193.9,52c-25.9,13.9-43.2,43.7-44.1,45.2l-3.8,6.6l6.4-4c25-15.7,53.3-20.5,234.5-5   c109,9.3,164.4-24.1,191.8-53.7C695.2,194.7,694.5,189.6,692.1,186.4"/>
	<path class="st1" d="M203.6,127.2c-67.7,4.5-149.4-25.8-150.1-26l-8.3-2.8l6,6.4c36.7,39.1,120.4,51.7,152.4,55.2V127.2z"/>
	<path class="st1" d="M203.6,76.4c-69-0.5-173.4-22.8-174.3-23L17,50.2l10.5,7.2c62.8,43.1,139.1,53.5,176.1,55.5V76.4z"/>
</g>
</svg>