<svg width="16" height="10" viewBox="0 0 16 10" fill="none" xmlns="http://www.w3.org/2000/svg">
<path d="M0.931094 4.71441C0.96679 4.62234 1.02032 4.53823 1.0886 4.46691L4.83859 0.716907C4.90852 0.646978 4.99154 0.591507 5.08291 0.553662C5.17427 0.515817 5.2722 0.496338 5.37109 0.496338C5.57082 0.496338 5.76237 0.575679 5.90359 0.716907C5.97352 0.786836 6.02899 0.869853 6.06684 0.96122C6.10468 1.05259 6.12416 1.15051 6.12416 1.24941C6.12416 1.44913 6.04482 1.64068 5.90359 1.78191L3.42859 4.24941H14.375C14.5739 4.24941 14.7647 4.32842 14.9053 4.46908C15.046 4.60973 15.125 4.80049 15.125 4.99941C15.125 5.19832 15.046 5.38908 14.9053 5.52974C14.7647 5.67039 14.5739 5.74941 14.375 5.74941H3.42859L5.90359 8.21691C5.97389 8.28663 6.02969 8.36958 6.06776 8.46097C6.10584 8.55237 6.12544 8.6504 6.12544 8.74941C6.12544 8.84842 6.10584 8.94645 6.06776 9.03784C6.02969 9.12923 5.97389 9.21218 5.90359 9.28191C5.83387 9.3522 5.75092 9.408 5.65953 9.44608C5.56813 9.48415 5.4701 9.50376 5.37109 9.50376C5.27209 9.50376 5.17406 9.48415 5.08266 9.44608C4.99127 9.408 4.90832 9.3522 4.83859 9.28191L1.0886 5.53191C1.02032 5.46058 0.96679 5.37647 0.931094 5.28441C0.856081 5.10181 0.856081 4.897 0.931094 4.71441Z" fill="#0F172A"/>
</svg>
