<svg width="11" height="8" viewBox="0 0 11 8" fill="none" xmlns="http://www.w3.org/2000/svg">
<path d="M0.749023 0.631836H5.23682C5.65999 0.631836 6.01969 0.682617 6.31592 0.78418C6.61637 0.88151 6.86182 1.03597 7.05225 1.24756C7.24268 1.45492 7.38232 1.72363 7.47119 2.05371C7.56006 2.37956 7.60449 2.771 7.60449 3.22803V5.21484H5.91602V3.22168C5.91602 2.96354 5.88851 2.75195 5.8335 2.58691C5.77848 2.41764 5.69596 2.28857 5.58594 2.19971C5.48014 2.10661 5.35107 2.04313 5.19873 2.00928C5.05062 1.97119 4.88346 1.95215 4.69727 1.95215H2.43115V7.5H0.749023V0.631836ZM6.95703 7.5H3.43408V2.9043H5.11621V6.17969H7.38232C7.632 6.17969 7.84782 6.14583 8.02979 6.07812C8.21175 6.01042 8.35352 5.88558 8.45508 5.70361C8.55664 5.52165 8.60742 5.25716 8.60742 4.91016V0.631836H10.2896V4.90381C10.2896 5.36084 10.1965 5.75439 10.0103 6.08447C9.82406 6.41032 9.57227 6.67904 9.25488 6.89062C8.94173 7.09798 8.58626 7.25244 8.18848 7.354C7.79069 7.45133 7.38021 7.5 6.95703 7.5Z" fill="black"/>
</svg>
