<svg width="15" height="16" viewBox="0 0 15 16" fill="none" xmlns="http://www.w3.org/2000/svg">
<path d="M14.2766 11.6063L12.7241 10.0163C12.3902 9.69885 11.969 9.48853 11.5146 9.41235C11.0601 9.33617 10.5933 9.39761 10.1741 9.58879L9.49913 8.91379C10.2945 7.85098 10.6578 6.52629 10.5158 5.20641C10.3738 3.88653 9.73701 2.66945 8.7337 1.80018C7.73039 0.930914 6.43503 0.473999 5.10837 0.52142C3.78172 0.568841 2.52228 1.11707 1.58359 2.05576C0.644908 2.99444 0.0966729 4.25388 0.0492522 5.58053C0.0018314 6.90719 0.458746 8.20255 1.32802 9.20586C2.19729 10.2092 3.41437 10.8459 4.73425 10.9879C6.05413 11.13 7.37882 10.7667 8.44163 9.97129L9.10913 10.6388C8.89545 11.0585 8.81887 11.5347 8.89018 12.0003C8.9615 12.4658 9.17711 12.8973 9.50663 13.2338L11.0966 14.8238C11.5185 15.2451 12.0904 15.4818 12.6866 15.4818C13.2829 15.4818 13.8548 15.2451 14.2766 14.8238C14.4909 14.6142 14.6612 14.364 14.7775 14.0877C14.8937 13.8115 14.9536 13.5148 14.9536 13.215C14.9536 12.9153 14.8937 12.6186 14.7775 12.3423C14.6612 12.0661 14.4909 11.8158 14.2766 11.6063ZM7.91663 8.42629C7.39181 8.94979 6.7236 9.306 5.99643 9.44993C5.26926 9.59385 4.51574 9.51904 3.83107 9.23493C3.1464 8.95082 2.56129 8.47017 2.14965 7.85369C1.73801 7.23721 1.51832 6.51256 1.51832 5.77129C1.51832 5.03001 1.73801 4.30536 2.14965 3.68888C2.56129 3.0724 3.1464 2.59175 3.83107 2.30764C4.51574 2.02354 5.26926 1.94872 5.99643 2.09265C6.7236 2.23657 7.39181 2.59278 7.91663 3.11628C8.26585 3.46463 8.54293 3.87844 8.73197 4.33403C8.92102 4.78962 9.01834 5.27803 9.01834 5.77129C9.01834 6.26454 8.92102 6.75295 8.73197 7.20854C8.54293 7.66413 8.26585 8.07795 7.91663 8.42629ZM13.2191 13.7288C13.1494 13.7991 13.0665 13.8549 12.9751 13.893C12.8837 13.931 12.7856 13.9506 12.6866 13.9506C12.5876 13.9506 12.4896 13.931 12.3982 13.893C12.3068 13.8549 12.2239 13.7991 12.1541 13.7288L10.5641 12.1388C10.4938 12.0691 10.438 11.9861 10.4 11.8947C10.3619 11.8033 10.3423 11.7053 10.3423 11.6063C10.3423 11.5073 10.3619 11.4093 10.4 11.3179C10.438 11.2265 10.4938 11.1435 10.5641 11.0738C10.6339 11.0035 10.7168 10.9477 10.8082 10.9096C10.8996 10.8715 10.9976 10.8519 11.0966 10.8519C11.1956 10.8519 11.2937 10.8715 11.3851 10.9096C11.4765 10.9477 11.5594 11.0035 11.6291 11.0738L13.2191 12.6638C13.2894 12.7335 13.3452 12.8165 13.3833 12.9079C13.4214 12.9993 13.441 13.0973 13.441 13.1963C13.441 13.2953 13.4214 13.3933 13.3833 13.4847C13.3452 13.5761 13.2894 13.6591 13.2191 13.7288Z" fill="#666666"/>
</svg>
